<svg xmlns="http://www.w3.org/2000/svg" version="1.1" width="600px" height="600px" viewBox="0 0 200 200" style="overflow:hidden!important;"><defs id="SvgjsDefs23246"></defs><g id="svga-group-wrapper"><g id="svga-group-backs-single"><path id="SvgjsPath23717" d="M0 0h200v200H0V0z" fill="#547980" stroke-width="none" opacity="1"></path><path id="SvgjsPath23718" d="M88.8 158.9s-21.3-3-23.6-17.1c-1.5-9.3 10.5-9.3 14.8-5.5 0 0 3.3-8.7 9.9-7.2 8.4 1.9 9.2 12.7-1.1 29.8zM38.7 51s14.9-16.3 6.8-30.1c-5.3-9.2-14.9-1.5-15.7 4.6 0 0-8.8-5.6-13 0-5.4 7 1.6 17 21.9 25.5zM168 165s-2.6-14.4 1.6-22.7 14.8-4 13.3 4.9c0 0 8.2-2 10.6 4.5 2.3 6.4-10 12.7-25.5 13.3zm6.6-139.5s5.2-1.9 5.9-4.8c.8-3-3-3.5-4.5-1.6 0 0-1.1-2.8-3.1-2.2-1.9.5-2.2 2.6 1.7 8.6z" fill="#2c5961" stroke-width="none" opacity="1"></path><path id="SvgjsPath23719" d="M125 33.1s-13-1.2-19.2-6.8.1-13.7 7.4-10.3c0 0 .2-7.6 6.3-8 6.2-.5 8.7 11.5 5.5 25.1zm15.9 84.9s3.6-4.2 2.8-7.1c-.8-3-4.4-1.6-4.7.8 0 0-2.4-1.9-3.8-.4s-.6 3.4 5.7 6.7zm12.2 66.9s7.1-.7 9-4.2-2.7-5.4-5.2-3.4c0 0-.5-3.9-3.2-3.8s-3.6 2.7-.6 11.4zm-122.9 5.7s23.3-3.5 29-15.3-9.8-17.2-17.5-10.6c0 0-2.3-12.8-11-11.9s-11.7 9.5-.5 37.8zm3.5-106.7s3.3-12.8-1.5-18.3-11 1.3-9.3 6.7c0 0-7.1-1.6-8.5 3-1.4 4.8 2.3 8.2 19.3 8.6z" fill="#3f6971" stroke-width="none" opacity="1"></path><path id="SvgjsPath23720" d="M149.4 76.1s-24.7-19.3-16.5-40.8c5.4-14.2 20.6-5.7 23.2 2.7 0 0 11-10 18.2-3.2 9.1 8.6 1.6 24.4-24.9 41.3zm7 29.6s-4.5-12.3-2-20.2 12.4-5.8 12.4 2.3c0 0 6.9-3 10 2.3 3 5.4-6.9 12.7-20.4 15.6zM53.9 143.9s-13-1.2-19.2-6.8.1-13.7 7.4-10.3c0 0 .2-7.6 6.3-8s8.7 11.6 5.5 25.1zm89.6 23.3s-4.6-9.3-3.3-15.7c1.2-6.5 9.3-5.6 10 .8 0 0 5.2-3 8 1s-4.3 10.5-14.7 13.9zM65.3 46s5.8-6.7 4.5-11.4-7-2.5-7.5 1.2c0 0-3.8-3.1-6-.7-2.2 2.4-1 5.6 9 10.9zm-40.7 81.2s4.7-5.4 3.7-9.3-5.7-2-6.1 1c0 0-3.1-2.5-4.9-.6s-.8 4.6 7.3 8.9zm53 60.3s5.2-1.9 5.9-4.8-3-3.5-4.5-1.6c0 0-1.1-2.8-3.1-2.2-1.8.6-2.1 2.7 1.7 8.6zm47.7-12.7s4.7-5.4 3.7-9.3c-1-3.9-5.7-2-6.1 1 0 0-3.1-2.5-4.9-.6-1.9 2-.9 4.6 7.3 8.9zm-22.6-132s4.7-5.4 3.7-9.3-5.7-2-6.1 1c0 0-3.1-2.5-4.9-.6-1.9 2-.9 4.6 7.3 8.9zM77.3 94.4s8.8-4.2 9.6-9.5-5.9-5.6-8.2-2.1c0 0-2.5-4.8-5.8-3.3-3.2 1.4-3.4 5.1 4.4 14.9z" fill="#497178" stroke-width="none" opacity="1"></path></g><g id="svga-group-humanwrap-move" transform="matrix(1,0,0,1,0,0)"><g id="svga-group-humanwrap" transform="matrix(1,0,0,1,0,0)"><g id="svga-group-hair-back-move" transform="matrix(1,0,0,1,0,0)"><g id="svga-group-hair-back" transform="matrix(1,0,0,1,0,0)"><path id="SvgjsPath24094" d="m121.3 38-1.3-9.1-4-3.7-10.7-5.7H75L60 31.9 44.7 44.2l-2 19.3-2.4 18 13.7 36-3 13.7-13.7 25 5 22 20.4 15.3 41.3-2.6L121.3 38z" fill="#2a232b" stroke-width="none" opacity="1"></path><path id="SvgjsPath24095" d="m118.6 34.8-16.5-6.2s-23.4.5-24.4.7c-.9.2-24.1 20.3-24.1 20.3l-4 36.9 5.7 22.2 5.2 20.1 11.3 13.9 6.6 7.8 4.7 11.1 3.6-25.8 16.6-75.4 13-20.3 2.3-5.3z" fill="#1b141c" stroke-width="none" opacity="1"></path><path id="SvgjsPath24096" d="m85.7 34.1-.7-2.9 12.3-3.9 14.1 2.3-.7 3.1-25 1.4z" fill="#000000" stroke-width="none" opacity="1"></path></g></g><g id="svga-group-humanbody-back"><path id="SvgjsPath23550" d="m168.2 200-4.6-14.2-34.9-13.4-10.8-9.7-1.4-50.5h-33l-1.4 50.5-10.8 9.7-34.9 13.4-4.6 14.2-3 20h142.4z" fill="#ffd0bc" stroke-width="none" opacity="1" stroke="none"></path><path id="SvgjsPath23551" d="m83.5 112.2-1.4 50.5-10.8 9.7-34.9 13.4-4.6 14.2-3 20H39v-20l1.7-13.3 32.1-12.9 14.1-9.5 2-52.1z" fill="#e09879" stroke-width="none" opacity="1" stroke="none"></path></g><g id="svga-group-chinshadow-single"><path id="SvgjsPath23800" d="M112.6 154.4s2.1-2.3 4.9-5.5l-1-36.8h-33l-1.2 42.6 7.7 4.2 7.1-1.8 7.1 1.8 8.4-4.5z" fill="#d17f5b" stroke-width="none" opacity="1" stroke="none"></path></g><g id="svga-group-humanbody-front"></g><g id="svga-group-clothes-single"><path id="SvgjsPath23926" d="M53.7 208.5 52 220h95.9l-2.2-11.5z" fill="#2b4d21" stroke-width="none" opacity="1"></path><path id="SvgjsPath23927" d="m174.5 197.5-11-11.7-25.4 10-38.2 1.9-38.1-1.9-25.4-10-11 11.7 3.5 3.1-1.7 3.2 15.8 9.1.9 2.5 16.7.1-.3 1.9 19.9-1.5.4 1.5 10.7 2.3 4.4-.5h8.5l.2-1.3 13.1 1.9 2.5-1.1 19.6-1.3-.3-1.9 15 .3 2.6-2.9 14.5-8.4-.4-3.9z" fill="#335529" stroke-width="none" opacity="1"></path><path id="SvgjsPath23928" d="m29.7 200.2 8.8-11.6L28 198.8l1.7 1.4zm20.6-6.3-6.8 18.6 1 2.8 5.8-21.4zm14 4.4-3.5 18.8s2.9-.4 2.9-.8.6-18 .6-18zm16.4 18.6c.1-.4 2-17.3 2-17.3l2.7 18.2-4.7-.9zm21.7 1.9V200l1.9 17.4-1.9 1.4zm14.2.4c0-.4-2-19.9-2-19.9l4.4 18.8-2.4 1.1zm20.9-2.4-3.9-19.2 5.4 19.2h-1.5zm16.7-1.4-7.6-21.5 10.1 18.3-2.5 3.2zm16.8-11s-12.4-15.9-11.9-15.9 11.5 11.9 11.6 12.3.3 3.6.3 3.6zm1-7.3-9.1-10.5 9.7 9.9-.6.6z" fill="#2b4d21" stroke-width="none" opacity="1"></path><path id="SvgjsPath23929" d="m158.2 189.2 11.2 15.3-7.1 4.4-6.3-19.1 2.2-.6zm-12.8 5.7 7.8 19.9-7.8-.1-4.6-18.4 4.6-1.4zm-13.5 3c.2.5 4.1 18.5 4.1 18.5l-4.8.6-.8-18.7 1.5-.4zM114 202l1.4 16.3H112l2-16.3zm-12.8 0 .2 16.3-5.4-.5 2.8-16.6 2.4.8zm-20.1-2.6-1.7 15.3-4.6.6 6.3-15.9zm-18-.4c0 .6-2.7 15.7-2.7 15.7l-12.5-.8 11.2-17.1 4 2.2zM40 189.3c-.5.5-11.5 14.1-11.5 14.1l7.9 3.3 5.1-16.9-1.5-.5z" fill="#3b5d31" stroke-width="none" opacity="1"></path></g><g id="svga-group-head" transform="matrix(1,0,0,1,0,0)"><g id="svga-group-ears-left-move" transform="matrix(1,0,0,1,0,0)"><g id="svga-group-ears-left" transform="matrix(1,0,0,1,0,0)"><path id="SvgjsPath24011" d="M64.1 91.8s-6-.7-10.6-3.7c0 0-3.5 9.4-4 14.4 0 0 6.7 13 10 18.5 0 0 5.2-.7 6.3-1.4l1.4-8.4-3.1-19.4z" fill="#ffd0bc" stroke-width="none" opacity="1"></path><path id="SvgjsPath24012" d="M54.3 90c-.2-.4-.8-1.9-.8-1.9 5.2.4 10.7 1.4 10.7 1.4l3 21.7-1.4 8.4c-1.1.7-6.3 1.4-6.3 1.4-.6-1-1.3-2.4-2.1-3.7l2.6 1 3-1.6s.7-11.2.5-11.5c-.1-.3-9-14.8-9.2-15.2z" fill="#f0b399" stroke-width="none" opacity="1"></path><path id="SvgjsPath24013" d="m51.3 100.9 2.8-5.5 5.2 6.8 2.2 9.5-1.4 1.9-4.3-7.6 1-4.7-2.6-4z" fill="#e09879" stroke-width="none" opacity="1"></path></g></g><g id="svga-group-ears-right-move" transform="matrix(1,0,0,1,0,0)"><g id="svga-group-ears-right" transform="matrix(1,0,0,1,0,0)"><path id="SvgjsPath24014" d="M135.9 91.8s6-.7 10.6-3.7c0 0 3.5 9.4 4 14.4 0 0-6.7 13-10 18.5 0 0-5.2-.7-6.3-1.4l-1.4-8.4 3.1-19.4z" fill="#ffd0bc" stroke-width="none" opacity="1"></path><path id="SvgjsPath24015" d="M145.7 90c.2-.4.8-1.9.8-1.9-5.2.4-10.7 1.4-10.7 1.4l-3 21.73 1.4 8.37c1.1.7 6.3 1.4 6.3 1.4.6-1 1.3-2.4 2.1-3.7l-2.6 1-3-1.6s-.7-11.2-.5-11.5c.1-.3 9-14.8 9.2-15.2z" fill="#f0b399" stroke-width="none" opacity="1"></path><path id="SvgjsPath24016" d="m148.7 100.9-2.8-5.5-5.2 6.8-2.2 9.5 1.4 1.9 4.3-7.6-1-4.7 2.6-4z" fill="#e09879" stroke-width="none" opacity="1"></path></g></g><g id="svga-group-faceshape-wrap" transform="matrix(1,0,0,1,0,0)"><g id="svga-group-faceshape-single"><path id="SvgjsPath23788" d="M136.8 61c-6.7-11.2-19-18.9-19-18.9-7-1.5-17.8-2.2-17.8-2.2s-10.8.8-17.8 2.2c0 0-12.4 7.6-19 18.9 0 0-5 14-5.2 23.9l1.1 23.6c1.6 6.4 5.3 14.8 5.3 14.8 2.1 4.3 20.1 24.2 20.1 24.2l8.3 4.5 7.1-1.8 7.1 1.8 8.3-4.5s17.9-19.9 20.1-24.2c0 0 3.7-8.4 5.3-14.8L142 85c-.3-9.9-5.2-24-5.2-24z" fill="#ffd0bc" stroke-width="none" opacity="1" stroke="none"></path><path id="SvgjsPath23789" d="m100.2 149.4-7.1 1.3-8.4-5.7-17.8-22-4.7-14.9-1-24 5-22 16.7-17 17.2-3.1 17.7.1c-7-1.5-17.8-2.2-17.8-2.2s-10.8.8-17.8 2.2c0 0-12.4 7.6-19 18.9 0 0-5 14-5.2 23.9l1.1 23.6c1.6 6.4 5.3 14.8 5.3 14.8 2.1 4.3 20.1 24.2 20.1 24.2l8.3 4.5 7.1-1.8 7.1 1.8 8.3-4.5-8.9 3.5-6.2-1.6z" fill="#e09879" stroke-width="none" opacity="1" stroke="none"></path><path id="SvgjsPath23790" d="m98.4 145.9.5-2.3 2.5-.2 1.1.2-2.7.9z" fill="#f7c1aa" stroke-width="none" opacity="1" stroke="none"></path></g></g><g id="svga-group-mouth-single-move" transform="matrix(1,0,0,1,0,0)"><g id="svga-group-mouth-single" transform="matrix(1,0,0,1,0,0)"><path id="SvgjsPath23993" d="m100.18 127.48-3.51-2.28-9.41 6.89 9.29 7.13 9.16.06 8.12-7.5-10.02-7.01z" fill="#da7c87" stroke-width="none" opacity="1" transform="translate(0 3)" stroke="none"></path><path id="SvgjsPath23994" d="m83.94 131.29 6.09 1.78 10.64-1.9 9.53 1.72 6.58-1.72-7.01.86-9.35-1.79-10.33 2.22z" fill="#cb5f6c" stroke-width="none" opacity="1" transform="translate(0 3)" stroke="none"></path><path id="SvgjsPath23995" d="m97.46 138.52 7.76-.17 4.6-4.38-5.16 3.49z" fill="#f9bfc6" stroke-width="none" opacity="1" transform="translate(0 3)" stroke="none"></path><path id="SvgjsPath23996" d="m110.13 131.33-6.2-5.43-2.76 1.82 2.76-1.1z" fill="#f9bfc6" stroke-width="none" opacity="1" transform="translate(0 3)" stroke="none"></path></g></g><g id="svga-group-eyes-left-move" transform="matrix(1,0,0,1,0,0)"><g id="svga-group-eyes-left" transform="matrix(1,0,0,1,0,0)"><g id="svga-group-eyesback-left"><path id="SvgjsPath23832" d="M92 100.8 87.7 97s-12.6-.7-12.9-.7-6.2 4.1-5.9 4.2c.2.2 6.3 2.9 8.7 3.4 0 0 3.7 0 7.5-.8 2.7-.6 5.5-1.7 6.9-2.3z" fill="#ffffff" stroke-width="none" opacity="1"></path></g><g id="svga-group-eyesiriswrapper-left" transform="matrix(1,0,0,1,0,0)"><g id="svga-group-eyesiriscontrol-left" transform="matrix(1,0,0,1,0,0)"><g id="svga-group-eyesiris-left" transform="matrix(1,0,0,1,0,0)"><path id="SvgjsPath23804" d="m82.59 104.53-4.96-1.82-.91-5.21 4.06-3.39 4.96 1.82.91 5.21z" fill="#7085b3" stroke-width="none" opacity="1"></path><path id="SvgjsPath23805" d="m78.19 100.47.77-3.59 3.49-1.14 2.73 2.46-.77 3.59-3.49 1.13z" fill="#000000" stroke-width="none" opacity="1"></path><path id="SvgjsPath23806" d="m78.52 96.52 3.23 3.6-1.39-5.36z" fill="#ffffff" stroke-width="none" opacity="1"></path></g></g></g><g id="svga-group-eyesfront-left"><path id="SvgjsPath23840" d="M68 94.5v11.1l7.7 7.9h10.9l7.7-7.9V94.5l-7.7-7.9H75.7L68 94.5zm.9 6.1c-.2-.2 5.7-4.2 5.9-4.2.2 0 12.9.7 12.9.7l4.3 3.8c-1.4.6-4.2 1.7-7 2.3-3.8.8-7.5.8-7.5.8-2.3-.5-8.3-3.3-8.6-3.4z" fill="#ffd0bc" stroke-width="none" opacity="1" stroke="none"></path><path id="SvgjsPath23841" d="m92.3 99.9-3.9-5.3-10.9-.1-2.3 1.3 3.5-.8 9.3.5z" fill="#f0b399" stroke-width="none" opacity="1" stroke="none"></path><path id="SvgjsPath23842" d="m67.5 101.7 1.8-.2-3.1-1.2 2.1-.4.5-.3-1.2-.3 1.7-.1 1.2-.8-1.9-.4 2.4.1 1.2-.8-1.3-.4 1.8.1.7-.5-.8-.3h1.3l.3-.1 13.6.5 4.9 4.3-.8-.1-4.3-3.6-12.6-.4-4.6 3.6 7.1 3.6-1.8-.2-.9-.4h-1.9l1.1-.3-1.6-.5-2.5-.1 1.5-.3-1.3-.5z" fill="#1b2a40" stroke-width="none" opacity="1" stroke="none"></path></g></g></g><g id="svga-group-eyes-right-move" transform="matrix(1,0,0,1,0,0)"><g id="svga-group-eyes-right" transform="matrix(1,0,0,1,0,0)"><g id="svga-group-eyesback-right"><path id="SvgjsPath23833" d="m108 100.8 4.3-3.8s12.6-.7 12.9-.7 6.2 4.1 5.9 4.2c-.2.2-6.3 2.9-8.7 3.4 0 0-3.7 0-7.5-.8-2.7-.6-5.5-1.7-6.9-2.3z" fill="#ffffff" stroke-width="none" opacity="1"></path></g><g id="svga-group-eyesiriswrapper-right" transform="matrix(1,0,0,1,0,0)"><g id="svga-group-eyesiriscontrol-right" transform="matrix(1,0,0,1,0,0)"><g id="svga-group-eyesiris-right" transform="matrix(1,0,0,1,0,0)"><path id="SvgjsPath23807" d="m119.22 104.53-4.96-1.82-.91-5.21 4.06-3.39 4.96 1.82.91 5.21z" fill="#7085b3" stroke-width="none" opacity="1"></path><path id="SvgjsPath23808" d="m114.82 100.47.77-3.59 3.49-1.14 2.73 2.46-.77 3.59-3.49 1.13z" fill="#000000" stroke-width="none" opacity="1"></path><path id="SvgjsPath23809" d="m115.15 96.52 3.23 3.6-1.39-5.36z" fill="#ffffff" stroke-width="none" opacity="1"></path></g></g></g><g id="svga-group-eyesfront-right"><path id="SvgjsPath23843" d="M124.3 86.6h-10.9l-7.7 7.9v11.1l7.7 7.9h10.9l7.7-7.9V94.5l-7.7-7.9zm-1.9 17.3s-3.7 0-7.5-.8c-2.7-.6-5.5-1.7-7-2.3l4.3-3.8s12.6-.7 12.9-.7c.2 0 6.2 4.1 5.9 4.2-.2.2-6.2 3-8.6 3.4z" fill="#ffd0bc" stroke-width="none" opacity="1" stroke="none"></path><path id="SvgjsPath23846" d="m107.7 99.9 3.9-5.3 10.9-.1 2.3 1.3-3.5-.8-9.3.5z" fill="#f0b399" stroke-width="none" opacity="1" stroke="none"></path><path id="SvgjsPath23847" d="m132.5 101.7-1.8-.2 3.1-1.2-2.1-.4-.5-.3 1.2-.3-1.7-.1-1.2-.8 1.9-.4-2.4.1-1.2-.8 1.3-.4-1.8.1-.7-.5.8-.3h-1.3l-.3-.1-13.6.5-4.9 4.3.8-.1 4.3-3.6 12.6-.4 4.6 3.6-7.2 3.5 1.9-.1.9-.4h1.9l-1.1-.3 1.6-.5 2.5-.1-1.5-.3 1.3-.5z" fill="#1b2a40" stroke-width="none" opacity="1" stroke="none"></path></g></g></g><g id="svga-group-facehighlight-single"></g><g id="svga-group-eyebrows-left-move" transform="matrix(1,0,0,1,0,0)"><g id="svga-group-eyebrows-left-rotate" transform="matrix(1,0,0,1,0,0)"><g id="svga-group-eyebrows-left" transform="matrix(1,0,0,1,0,0)"><path id="SvgjsPath23904" d="m92.2 87.2-1.7 3.5-14.6-4.1-8.2 2 5.9-5 3-.6z" fill="#2a232b" stroke-width="none" opacity="1"></path><path id="SvgjsPath23905" d="m85.7 85.5 1.4.4.5 2.6-1.9-3zM76.6 83l3 3.6-4.3-3.4 1.3-.2zm6.4 1.7 1 3.1-2.6-3.5 1.6.4zm-12 1.1h1.9l-2.6.6.7-.6zm13.9-.6.2 1.1-1.2-1.3 1 .2zm-11.3-1.6 2.6 1.4-3.2-.8.6-.6zm15.7 2.8.5 3.1-2.3-3.5 1.8.4z" fill="#3a353a" stroke-width="none" opacity="1"></path></g></g></g><g id="svga-group-eyebrows-right-move" transform="matrix(1,0,0,1,0,0)"><g id="svga-group-eyebrows-right-rotate" transform="matrix(1,0,0,1,0,0)"><g id="svga-group-eyebrows-right" transform="matrix(1,0,0,1,0,0)"><path id="SvgjsPath23906" d="m107.8 87.2 1.7 3.5 14.6-4.1 8.2 2-5.9-5-3-.6z" fill="#2a232b" stroke-width="none" opacity="1"></path><path id="SvgjsPath23907" d="m114.3 85.5-1.4.4-.5 2.6 1.9-3zm9.1-2.5-3 3.6 4.3-3.4-1.3-.2zm-6.4 1.7-1 3.1 2.6-3.5-1.6.4zm12 1.1h-1.9l2.6.6-.7-.6zm-13.9-.6-.2 1.1 1.1-1.4-.9.3zm11.3-1.6-2.6 1.4 3.2-.8-.6-.6zm-15.7 2.8-.5 3.1 2.3-3.5-1.8.4z" fill="#3a353a" stroke-width="none" opacity="1"></path></g></g></g><g id="svga-group-nose-single-move" transform="matrix(1,0,0,1,0,0)"><g id="svga-group-nose-single" transform="matrix(1,0,0,1,0,0)"><path id="SvgjsPath23970" d="m104.26 110.12-1.71-13.72.96 12.74-.75-.19 5.77 8.81-2.05 1.51-1.13-1.32.25-1.17-4.51 3.91h-2.1l-4.51-3.91.25 1.17-1.13 1.32-2.04-1.51 5.76-8.81-.75.19 1.17-19.97-1.92 20.95-5.1 7.73 3.34 2.45 1.26-1.76 3.67 3.42h2.1l3.68-3.42 1.25 1.76 3.34-2.45z" fill="#e09879" stroke-width="none" opacity="1" transform="translate(0 2)" stroke="none"></path><path id="SvgjsPath23971" d="m96.64 116.02 2.07 1.27 2.71.06 2.24-1.02-.27-1.54-3.14-.53-3.45.59z" fill="#ffd9c9" stroke-width="none" opacity="1" transform="translate(0 2)" stroke="none"></path></g></g><g id="svga-group-hair-front" transform="matrix(1,0,0,1,0,0)"><path id="SvgjsPath24091" d="M61.5 99.7 57 88.8l.2-12.4 1.1-.9 1.8-10.8 1.2-1.1 1.7-8.2 1.8-1.3 2.3-7.1 8-9.8 5.4-2.3 2.5-1.5 3.4-.3 1.1-1.5 13.7-2 1 1.1 9.6.1 3.1 2.4 7.8 1.8 9.3 8.4 4.6 10.7 2.2 2.6.7 3.2 2.2 2 .5 10.9 1.8 1.8v10.3l-.5 3.6-3.5 7.9-3.1-14.7-4-8.4-2.1-6.3-2.6-3.3-3.2-4.2-5.5.4-2.9-1.5-9.4 3.8-11.1-.2-9.3-3.3-6.3 2.3-3.6-1.4-3.4 5.3-3.7 4.2-2.3 6.1-3.1 6.8-2.9 17.7z" fill="#322c33" stroke-width="none" opacity="1"></path><path id="SvgjsPath24092" d="m96.1 62-7.6-10.7-1.2-12.7 1.9-6-4.4 5.4-.2 13.7 2.1 6.9 9.4 3.4zm-15.6-1s-4.3-11.7-4.3-12.2 3.7-11.6 3.7-11.6l3.1-3.7-5.9 3.9-4.2 14.1s3.4 7.7 4.1 8.2c.6.3 3.5 1.3 3.5 1.3zm-7 3.9-6.1-11-.3-6.9-2.3 7.2 2.1 9.2 3 5.7 3.6-4.2zm-12.2-1.3 2 9.3 2.6 6.5-1.8 5.1-6-9 1.8-10.8 1.4-1.1zm45.9-1.4c0-1.1 1.7-17.3 1.7-17.3L105 34.3l-2.9-3.6 5.5 3.4 5.3 11.6-.2 9-2.1 6.3-3.4 1.2zm12.3-2.3c.6-1.1 2-12.2 2-12.9s-3.9-10.6-3.9-10.6l-2.7-3.2 6.4 4.8 5.8 12.3-2.1 9.1-5.5.5zm11.3 7.1 3-12.6-1.8-11 4.6 10.8-1.6 9.6-4.2 3.2zm6.1 14.7 3.4-11.8 1.3-8 .5 10.9-3.1 8.1-2.1.8zm3.1 14.7s1.9-9.8 2.1-11.4 1.9-10.5 1.9-10.5v10.3s-.2 2.8-.5 3.6c-.4.9-3.5 8-3.5 8zm-78.5 3.3L57 88.8l.5-8.2 4 19.1zm4.8 99.8 9.1-12.3-.8-9.9 2.3-11.7-10.2-17.3-15.8-17-9.6 25.1s5.9 19 7.2 19.3S63 188.8 63 189.6s3.3 9.9 3.3 9.9z" fill="#2a232b" stroke-width="none" opacity="1"></path><path id="SvgjsPath24093" d="M93.4 27.2 75 19.5 44.7 44.2l-4.3 37.3 5.1 12.1L43 77.8l6.2-32.2L75.7 24l17.7 3.2zM51 131.2l-13.7 25 5 22 15.4 11.6 2.7 9.4-2.7 8.3 8.6-8 5.1-10.2-.8-7.5-22-12.6-4-15.3 6.4-22.7zm3.1 9.4-3 13.7 3 14 20.5 9-16.1-12.6-4.4-12.2v-11.9zM93.4 20.1l11.1 2.8 1.3 4.5-3.4-3.4-9-3.9z" fill="#3a353a" stroke-width="none" opacity="1"></path></g><g id="svga-group-glasses-single-move" transform="matrix(1,0,0,1,0,0)"><g id="svga-group-glasses-single" transform="matrix(1,0,0,1,0,0)"></g></g></g></g></g><rect id="svga-credit-rect" width="200" height="15" x="0" y="185" fill="#ecf0f1" opacity="0.5" style="display: none;"></rect><text id="svga-credit-text" font-family="Avenir Next, Roboto, Helvetica, Arial, sans-serif" font-size="10px" text-anchor="start" font-weight="400" size="10px" anchor="start" weight="400" fill="#333333" x="33.40367126464844" y="182.60824704170227" style="display: none;"><tspan id="SvgjsTspan23294" dy="13" x="33.40367126464844">Created on AvatarMaker.com</tspan></text></g></svg>